<svg width="102" height="34" viewBox="0 0 102 34" fill="none" xmlns="http://www.w3.org/2000/svg">
<path d="M7.29688 21.3281C6.94271 21.3281 6.58854 21.2656 6.23438 21.1406C5.89062 21.0156 5.55729 20.8333 5.23438 20.5938C4.91146 20.3438 4.63021 20.0156 4.39062 19.6094C4.15104 19.2031 4.02083 18.7188 4 18.1562V12.5156C4 12.224 4.10417 11.9844 4.3125 11.7969C4.53125 11.599 4.78646 11.5 5.07812 11.5C5.70312 11.5521 6.04167 11.8906 6.09375 12.5156V18.0312C6.10417 18.2812 6.15625 18.4948 6.25 18.6719C6.34375 18.8385 6.44792 18.974 6.5625 19.0781C6.67708 19.1719 6.79167 19.2448 6.90625 19.2969C7.03125 19.3385 7.15625 19.3594 7.28125 19.3594C7.40625 19.3594 7.53125 19.3385 7.65625 19.2969C7.78125 19.2448 7.90104 19.1719 8.01562 19.0781C8.13021 18.974 8.23438 18.8385 8.32812 18.6719C8.42188 18.4948 8.46875 18.2812 8.46875 18.0312V12.5156C8.46875 12.224 8.57292 11.9844 8.78125 11.7969C9 11.599 9.25521 11.5 9.54688 11.5C10.1719 11.5521 10.5156 11.8906 10.5781 12.5156V18.0312C10.5885 18.2812 10.6406 18.4896 10.7344 18.6562C10.8281 18.8333 10.9323 18.974 11.0469 19.0781C11.1615 19.1719 11.276 19.2448 11.3906 19.2969C11.5156 19.3385 11.6406 19.3594 11.7656 19.3594C11.8906 19.3594 12.0156 19.3385 12.1406 19.2969C12.2656 19.2448 12.3854 19.1719 12.5 19.0781C12.6146 18.974 12.7188 18.8385 12.8125 18.6719C12.9062 18.4948 12.9531 18.2812 12.9531 18.0312V12.5156C12.9531 12.224 13.0573 11.9844 13.2656 11.7969C13.4844 11.599 13.7396 11.5 14.0312 11.5C14.6562 11.5521 15 11.8906 15.0625 12.5156V18.1562C15.0625 18.7188 14.9375 19.2031 14.6875 19.6094C14.4479 20.0156 14.1667 20.3438 13.8438 20.5938C13.5312 20.8333 13.1979 21.0156 12.8438 21.1406C12.5 21.2656 12.1458 21.3281 11.7812 21.3281C11.4271 21.3281 11.0729 21.2656 10.7188 21.1406C10.375 21.0156 10.0417 20.8281 9.71875 20.5781C9.65625 20.5365 9.59896 20.4896 9.54688 20.4375C9.48438 20.4896 9.42708 20.5365 9.375 20.5781C9.05208 20.8281 8.71354 21.0156 8.35938 21.1406C8.01562 21.2656 7.66146 21.3281 7.29688 21.3281ZM30.375 15.8438C30.5729 15.3438 30.9062 14.8958 31.375 14.5C31.8542 14.0938 32.4583 13.8854 33.1875 13.875H39.0625C39.3542 13.875 39.599 13.9792 39.7969 14.1875C40.0052 14.3854 40.1094 14.6302 40.1094 14.9219C40.1094 15.2135 40.0052 15.4635 39.7969 15.6719C39.599 15.8698 39.3542 15.9688 39.0625 15.9688H33.125C32.9271 15.9688 32.7552 16.0521 32.6094 16.2188C32.4635 16.375 32.349 16.5625 32.2656 16.7812C32.1927 17 32.1562 17.2083 32.1562 17.4062V20.1406C32.0938 20.7656 31.75 21.1042 31.125 21.1562C30.8333 21.1562 30.5781 21.0625 30.3594 20.875C30.151 20.6771 30.0469 20.4323 30.0469 20.1406V17.4219H30.0625C30.0625 16.8802 30.1667 16.3542 30.375 15.8438ZM42.7344 11.5C43.0156 11.5104 43.2552 11.6146 43.4531 11.8125C43.651 12 43.7552 12.2344 43.7656 12.5156V20.1719C43.7031 20.7969 43.3594 21.1354 42.7344 21.1875C42.4427 21.1875 42.1875 21.0938 41.9688 20.9062C41.7604 20.7083 41.6562 20.4635 41.6562 20.1719V12.5156C41.6667 12.224 41.776 11.9844 41.9844 11.7969C42.1927 11.599 42.4427 11.5 42.7344 11.5ZM44.7188 15.8594C45.0208 15.3698 45.599 15.0104 46.4531 14.7812L50.4688 13.7031C50.75 13.6198 51.0156 13.6458 51.2656 13.7812C51.526 13.9062 51.6979 14.1094 51.7812 14.3906C51.875 14.6615 51.8542 14.9271 51.7188 15.1875C51.5938 15.4375 51.3906 15.6094 51.1094 15.7031L46.8281 16.8125C46.526 16.9271 46.3802 17.125 46.3906 17.4062C46.3802 17.6875 46.526 17.8854 46.8281 18L51.1094 19.1094C51.3906 19.2031 51.5938 19.3802 51.7188 19.6406C51.8542 19.8906 51.875 20.151 51.7812 20.4219C51.6979 20.7031 51.526 20.9062 51.2656 21.0312C51.0156 21.1667 50.75 21.1927 50.4688 21.1094L46.4531 20.0312C45.5885 19.7917 45.0052 19.4271 44.7031 18.9375C44.4115 18.4479 44.2656 17.9375 44.2656 17.4062C44.2656 16.875 44.4167 16.3594 44.7188 15.8594ZM62.5156 11.5C62.8073 11.5 63.0573 11.599 63.2656 11.7969C63.474 11.9844 63.5833 12.224 63.5938 12.5156V16.2812C63.5833 16.7083 63.6094 17.1042 63.6719 17.4688C63.7448 17.8229 63.9115 18.1406 64.1719 18.4219C64.4323 18.7031 64.7604 18.8542 65.1562 18.875H70.1562C70.4479 18.8854 70.6875 18.9948 70.875 19.2031C71.0729 19.4115 71.1719 19.6615 71.1719 19.9531C71.1615 20.2344 71.0573 20.474 70.8594 20.6719C70.6719 20.8594 70.4375 20.9583 70.1562 20.9688H64.625C63.8958 20.9271 63.2917 20.6823 62.8125 20.2344C62.3438 19.776 62.0052 19.2188 61.7969 18.5625C61.599 17.9062 61.4948 17.2083 61.4844 16.4688V12.5156C61.4948 12.2344 61.599 12 61.7969 11.8125C61.9948 11.6146 62.2344 11.5104 62.5156 11.5ZM73.7344 13.7188C74.0156 13.7292 74.2552 13.8333 74.4531 14.0312C74.651 14.2188 74.7552 14.4531 74.7656 14.7344V20.1406C74.7031 20.7656 74.3594 21.1042 73.7344 21.1562C73.4427 21.1562 73.1875 21.0625 72.9688 20.875C72.7604 20.6771 72.6562 20.4323 72.6562 20.1406V14.7344C72.6667 14.4427 72.776 14.2031 72.9844 14.0156C73.1927 13.8177 73.4427 13.7188 73.7344 13.7188ZM72.4219 11.6875C72.4219 11.3958 72.5469 11.1458 72.7969 10.9375C73.0469 10.7292 73.349 10.625 73.7031 10.625C74.0573 10.625 74.3594 10.7292 74.6094 10.9375C74.8594 11.1458 74.9844 11.3958 74.9844 11.6875C74.9844 11.9896 74.8594 12.2448 74.6094 12.4531C74.3594 12.6615 74.0573 12.7656 73.7031 12.7656C73.349 12.7656 73.0469 12.6615 72.7969 12.4531C72.5469 12.2448 72.4219 11.9896 72.4219 11.6875ZM81.6562 13.6406C82.1979 13.6406 82.7292 13.7031 83.25 13.8281C83.7812 13.9531 84.2865 14.1406 84.7656 14.3906C85.2448 14.6302 85.6667 14.9531 86.0312 15.3594C86.4062 15.7656 86.6094 16.25 86.6406 16.8125V17.4688V20.1406C86.5781 20.7656 86.2344 21.1042 85.6094 21.1562C85.3177 21.1562 85.0625 21.0625 84.8438 20.875C84.6354 20.6771 84.5312 20.4323 84.5312 20.1406V19.4531V17.2969C84.5104 16.974 84.3854 16.7083 84.1562 16.5C83.9375 16.2812 83.6875 16.1094 83.4062 15.9844C83.1354 15.8594 82.849 15.7656 82.5469 15.7031C82.2552 15.6406 81.9583 15.6094 81.6562 15.6094C81.3542 15.6094 81.0521 15.6406 80.75 15.7031C80.4583 15.7656 80.1719 15.8594 79.8906 15.9844C79.6198 16.1094 79.3698 16.2812 79.1406 16.5C78.9219 16.7083 78.8021 16.974 78.7812 17.2969V19.4531V20.1406C78.7292 20.7656 78.3906 21.1042 77.7656 21.1562C77.474 21.1562 77.2188 21.0625 77 20.875C76.7917 20.6771 76.6875 20.4323 76.6875 20.1406V17.4688V16.8125C76.7188 16.25 76.9167 15.7656 77.2812 15.3594C77.6458 14.9531 78.0677 14.6302 78.5469 14.3906C79.026 14.1406 79.526 13.9531 80.0469 13.8281C80.5781 13.7031 81.1146 13.6406 81.6562 13.6406ZM89.7031 11.5C89.9844 11.5104 90.224 11.6146 90.4219 11.8125C90.6198 12 90.724 12.2344 90.7344 12.5156V20.1719C90.6719 20.7969 90.3281 21.1354 89.7031 21.1875C89.4115 21.1875 89.1562 21.0938 88.9375 20.9062C88.7292 20.7083 88.625 20.4635 88.625 20.1719V12.5156C88.6354 12.224 88.7448 11.9844 88.9531 11.7969C89.1615 11.599 89.4115 11.5 89.7031 11.5ZM91.6875 15.8594C91.9896 15.3698 92.5677 15.0104 93.4219 14.7812L97.4375 13.7031C97.7188 13.6198 97.9844 13.6458 98.2344 13.7812C98.4948 13.9062 98.6667 14.1094 98.75 14.3906C98.8438 14.6615 98.8229 14.9271 98.6875 15.1875C98.5625 15.4375 98.3594 15.6094 98.0781 15.7031L93.7969 16.8125C93.4948 16.9271 93.349 17.125 93.3594 17.4062C93.349 17.6875 93.4948 17.8854 93.7969 18L98.0781 19.1094C98.3594 19.2031 98.5625 19.3802 98.6875 19.6406C98.8229 19.8906 98.8438 20.151 98.75 20.4219C98.6667 20.7031 98.4948 20.9062 98.2344 21.0312C97.9844 21.1667 97.7188 21.1927 97.4375 21.1094L93.4219 20.0312C92.5573 19.7917 91.974 19.4271 91.6719 18.9375C91.3802 18.4479 91.2344 17.9375 91.2344 17.4062C91.2344 16.875 91.3854 16.3594 91.6875 15.8594Z" fill="white"/>
<path d="M20.3438 20.9688C19.4271 20.9375 18.7344 20.724 18.2656 20.3281C17.7969 19.9219 17.4583 19.4688 17.25 18.9688C17.0417 18.4583 16.9375 17.9427 16.9375 17.4219C16.9375 16.8802 17.0365 16.3594 17.2344 15.8594C17.4427 15.349 17.7812 14.8958 18.25 14.5C18.7292 14.0938 19.3333 13.8854 20.0625 13.875H25.125C25.8542 13.8854 26.4531 14.0938 26.9219 14.5C27.401 14.8958 27.7396 15.349 27.9375 15.8594C28.1458 16.3594 28.25 16.8802 28.25 17.4219C28.25 17.9427 28.1458 18.4583 27.9375 18.9688C27.7292 19.4688 27.3906 19.9219 26.9219 20.3281C26.4531 20.724 25.7604 20.9375 24.8438 20.9688H20.3438ZM20 15.9688C19.8021 15.9688 19.6302 16.0521 19.4844 16.2188C19.3385 16.375 19.2292 16.5625 19.1562 16.7812C19.0938 16.9896 19.0625 17.1979 19.0625 17.4062C19.0625 17.625 19.0938 17.8438 19.1562 18.0625C19.2292 18.2708 19.3385 18.4583 19.4844 18.625C19.6302 18.7812 19.8021 18.8646 20 18.875H25.1875C25.3854 18.8646 25.5573 18.7812 25.7031 18.625C25.849 18.4583 25.9531 18.2708 26.0156 18.0625C26.0885 17.8438 26.125 17.625 26.125 17.4062C26.125 17.1979 26.0885 16.9896 26.0156 16.7812C25.9531 16.5625 25.849 16.375 25.7031 16.2188C25.5573 16.0521 25.3854 15.9688 25.1875 15.9688H20Z" fill="#21C87A"/>
</svg>
