<svg width="148" height="28" viewBox="0 0 148 28" fill="none" xmlns="http://www.w3.org/2000/svg">
<rect width="141" height="28" fill="white"/>
<path d="M6.17676 23.4717C5.66764 23.4717 5.15853 23.3818 4.64941 23.2021C4.15527 23.0225 3.67611 22.7604 3.21191 22.416C2.74772 22.0566 2.34342 21.585 1.99902 21.001C1.65462 20.417 1.46745 19.7207 1.4375 18.9121V10.8037C1.4375 10.3844 1.58724 10.04 1.88672 9.77051C2.20117 9.486 2.56803 9.34375 2.9873 9.34375C3.88574 9.41862 4.3724 9.90527 4.44727 10.8037V18.7324C4.46224 19.0918 4.53711 19.3988 4.67188 19.6533C4.80664 19.8929 4.95638 20.0876 5.12109 20.2373C5.28581 20.3721 5.45052 20.4769 5.61523 20.5518C5.79492 20.6117 5.97461 20.6416 6.1543 20.6416C6.33398 20.6416 6.51367 20.6117 6.69336 20.5518C6.87305 20.4769 7.04525 20.3721 7.20996 20.2373C7.37467 20.0876 7.52441 19.8929 7.65918 19.6533C7.79395 19.3988 7.86133 19.0918 7.86133 18.7324V10.8037C7.86133 10.3844 8.01107 10.04 8.31055 9.77051C8.625 9.486 8.99186 9.34375 9.41113 9.34375C10.3096 9.41862 10.8037 9.90527 10.8936 10.8037V18.7324C10.9085 19.0918 10.9834 19.3913 11.1182 19.6309C11.2529 19.8854 11.4027 20.0876 11.5674 20.2373C11.7321 20.3721 11.8968 20.4769 12.0615 20.5518C12.2412 20.6117 12.4209 20.6416 12.6006 20.6416C12.7803 20.6416 12.96 20.6117 13.1396 20.5518C13.3193 20.4769 13.4915 20.3721 13.6562 20.2373C13.821 20.0876 13.9707 19.8929 14.1055 19.6533C14.2402 19.3988 14.3076 19.0918 14.3076 18.7324V10.8037C14.3076 10.3844 14.4574 10.04 14.7568 9.77051C15.0713 9.486 15.4382 9.34375 15.8574 9.34375C16.7559 9.41862 17.25 9.90527 17.3398 10.8037V18.9121C17.3398 19.7207 17.1602 20.417 16.8008 21.001C16.4564 21.585 16.0521 22.0566 15.5879 22.416C15.1387 22.7604 14.6595 23.0225 14.1504 23.2021C13.6562 23.3818 13.1471 23.4717 12.623 23.4717C12.1139 23.4717 11.6048 23.3818 11.0957 23.2021C10.6016 23.0225 10.1224 22.7529 9.6582 22.3936C9.56836 22.3337 9.486 22.2663 9.41113 22.1914C9.32129 22.2663 9.23893 22.3337 9.16406 22.3936C8.69987 22.7529 8.21322 23.0225 7.7041 23.2021C7.20996 23.3818 6.70085 23.4717 6.17676 23.4717ZM39.3516 15.5879C39.6361 14.8691 40.1152 14.2253 40.7891 13.6562C41.4779 13.0723 42.3464 12.7728 43.3945 12.7578H51.8398C52.2591 12.7578 52.611 12.9076 52.8955 13.207C53.195 13.4915 53.3447 13.8434 53.3447 14.2627C53.3447 14.682 53.195 15.0413 52.8955 15.3408C52.611 15.6253 52.2591 15.7676 51.8398 15.7676H43.3047C43.0202 15.7676 42.7731 15.8874 42.5635 16.127C42.3538 16.3516 42.1891 16.6211 42.0693 16.9355C41.9645 17.25 41.9121 17.5495 41.9121 17.834V21.7646C41.8223 22.6631 41.3281 23.1497 40.4297 23.2246C40.0104 23.2246 39.6436 23.0898 39.3291 22.8203C39.0296 22.5358 38.8799 22.1839 38.8799 21.7646V17.8564H38.9023C38.9023 17.0778 39.0521 16.3216 39.3516 15.5879ZM57.1182 9.34375C57.5225 9.35872 57.8669 9.50846 58.1514 9.79297C58.4359 10.0625 58.5856 10.3994 58.6006 10.8037V21.8096C58.5107 22.708 58.0166 23.1947 57.1182 23.2695C56.6989 23.2695 56.332 23.1348 56.0176 22.8652C55.7181 22.5807 55.5684 22.2288 55.5684 21.8096V10.8037C55.5833 10.3844 55.7406 10.04 56.04 9.77051C56.3395 9.486 56.6989 9.34375 57.1182 9.34375ZM59.9707 15.6104C60.4049 14.9066 61.236 14.39 62.4639 14.0605L68.2363 12.5107C68.6406 12.391 69.0225 12.4284 69.3818 12.623C69.7562 12.8027 70.0033 13.0947 70.123 13.499C70.2578 13.8883 70.2279 14.2702 70.0332 14.6445C69.8535 15.0039 69.5615 15.251 69.1572 15.3857L63.0029 16.9805C62.5687 17.1452 62.359 17.4297 62.374 17.834C62.359 18.2383 62.5687 18.5228 63.0029 18.6875L69.1572 20.2822C69.5615 20.417 69.8535 20.6715 70.0332 21.0459C70.2279 21.4053 70.2578 21.7796 70.123 22.1689C70.0033 22.5732 69.7562 22.8652 69.3818 23.0449C69.0225 23.2396 68.6406 23.277 68.2363 23.1572L62.4639 21.6074C61.221 21.263 60.3825 20.7389 59.9482 20.0352C59.529 19.3314 59.3193 18.5977 59.3193 17.834C59.3193 17.0703 59.5365 16.3291 59.9707 15.6104ZM85.5537 9.34375C85.973 9.34375 86.3324 9.486 86.6318 9.77051C86.9313 10.04 87.0885 10.3844 87.1035 10.8037V16.2168C87.0885 16.8307 87.126 17.3997 87.2158 17.9238C87.3206 18.4329 87.5602 18.8896 87.9346 19.2939C88.3089 19.6982 88.7806 19.9154 89.3496 19.9453H96.5371C96.9564 19.9603 97.3008 20.1175 97.5703 20.417C97.8548 20.7165 97.9971 21.0758 97.9971 21.4951C97.9821 21.8994 97.8324 22.2438 97.5479 22.5283C97.2783 22.7979 96.9414 22.9401 96.5371 22.9551H88.5859C87.5378 22.8952 86.6693 22.5433 85.9805 21.8994C85.3066 21.2406 84.82 20.4395 84.5205 19.4961C84.236 18.5527 84.0863 17.5495 84.0713 16.4863V10.8037C84.0863 10.3994 84.236 10.0625 84.5205 9.79297C84.805 9.50846 85.1494 9.35872 85.5537 9.34375ZM101.681 12.5332C102.085 12.5482 102.429 12.6979 102.714 12.9824C102.998 13.252 103.148 13.5889 103.163 13.9932V21.7646C103.073 22.6631 102.579 23.1497 101.681 23.2246C101.261 23.2246 100.895 23.0898 100.58 22.8203C100.281 22.5358 100.131 22.1839 100.131 21.7646V13.9932C100.146 13.5739 100.303 13.2295 100.603 12.96C100.902 12.6755 101.261 12.5332 101.681 12.5332ZM99.7939 9.61328C99.7939 9.19401 99.9736 8.83464 100.333 8.53516C100.692 8.23568 101.127 8.08594 101.636 8.08594C102.145 8.08594 102.579 8.23568 102.938 8.53516C103.298 8.83464 103.478 9.19401 103.478 9.61328C103.478 10.0475 103.298 10.4144 102.938 10.7139C102.579 11.0133 102.145 11.1631 101.636 11.1631C101.127 11.1631 100.692 11.0133 100.333 10.7139C99.9736 10.4144 99.7939 10.0475 99.7939 9.61328ZM113.068 12.4209C113.847 12.4209 114.611 12.5107 115.359 12.6904C116.123 12.8701 116.849 13.1396 117.538 13.499C118.227 13.8434 118.833 14.3076 119.357 14.8916C119.896 15.4756 120.188 16.1719 120.233 16.9805V17.9238V21.7646C120.144 22.6631 119.649 23.1497 118.751 23.2246C118.332 23.2246 117.965 23.0898 117.65 22.8203C117.351 22.5358 117.201 22.1839 117.201 21.7646V20.7764V17.6768C117.171 17.2126 116.992 16.8307 116.662 16.5312C116.348 16.2168 115.988 15.9697 115.584 15.79C115.195 15.6104 114.783 15.4756 114.349 15.3857C113.929 15.2959 113.503 15.251 113.068 15.251C112.634 15.251 112.2 15.2959 111.766 15.3857C111.346 15.4756 110.935 15.6104 110.53 15.79C110.141 15.9697 109.782 16.2168 109.452 16.5312C109.138 16.8307 108.965 17.2126 108.936 17.6768V20.7764V21.7646C108.861 22.6631 108.374 23.1497 107.476 23.2246C107.056 23.2246 106.689 23.0898 106.375 22.8203C106.076 22.5358 105.926 22.1839 105.926 21.7646V17.9238V16.9805C105.971 16.1719 106.255 15.4756 106.779 14.8916C107.303 14.3076 107.91 13.8434 108.599 13.499C109.287 13.1396 110.006 12.8701 110.755 12.6904C111.519 12.5107 112.29 12.4209 113.068 12.4209ZM124.636 9.34375C125.04 9.35872 125.384 9.50846 125.669 9.79297C125.953 10.0625 126.103 10.3994 126.118 10.8037V21.8096C126.028 22.708 125.534 23.1947 124.636 23.2695C124.216 23.2695 123.85 23.1348 123.535 22.8652C123.236 22.5807 123.086 22.2288 123.086 21.8096V10.8037C123.101 10.3844 123.258 10.04 123.558 9.77051C123.857 9.486 124.216 9.34375 124.636 9.34375ZM127.488 15.6104C127.923 14.9066 128.754 14.39 129.981 14.0605L135.754 12.5107C136.158 12.391 136.54 12.4284 136.899 12.623C137.274 12.8027 137.521 13.0947 137.641 13.499C137.775 13.8883 137.745 14.2702 137.551 14.6445C137.371 15.0039 137.079 15.251 136.675 15.3857L130.521 16.9805C130.086 17.1452 129.877 17.4297 129.892 17.834C129.877 18.2383 130.086 18.5228 130.521 18.6875L136.675 20.2822C137.079 20.417 137.371 20.6715 137.551 21.0459C137.745 21.4053 137.775 21.7796 137.641 22.1689C137.521 22.5732 137.274 22.8652 136.899 23.0449C136.54 23.2396 136.158 23.277 135.754 23.1572L129.981 21.6074C128.739 21.263 127.9 20.7389 127.466 20.0352C127.047 19.3314 126.837 18.5977 126.837 17.834C126.837 17.0703 127.054 16.3291 127.488 15.6104Z" fill="black"/>
<path d="M24.9316 22.9551C23.6139 22.9102 22.6182 22.6032 21.9443 22.0342C21.2705 21.4502 20.7839 20.7988 20.4844 20.0801C20.1849 19.3464 20.0352 18.6051 20.0352 17.8564C20.0352 17.0778 20.1774 16.3291 20.4619 15.6104C20.7614 14.8766 21.248 14.2253 21.9219 13.6562C22.6107 13.0723 23.4792 12.7728 24.5273 12.7578H31.8047C32.8529 12.7728 33.7139 13.0723 34.3877 13.6562C35.0765 14.2253 35.5632 14.8766 35.8477 15.6104C36.1471 16.3291 36.2969 17.0778 36.2969 17.8564C36.2969 18.6051 36.1471 19.3464 35.8477 20.0801C35.5482 20.7988 35.0615 21.4502 34.3877 22.0342C33.7139 22.6032 32.7181 22.9102 31.4004 22.9551H24.9316ZM24.4375 15.7676C24.153 15.7676 23.9059 15.8874 23.6963 16.127C23.4867 16.3516 23.3294 16.6211 23.2246 16.9355C23.1348 17.235 23.0898 17.5345 23.0898 17.834C23.0898 18.1484 23.1348 18.4629 23.2246 18.7773C23.3294 19.0768 23.4867 19.3464 23.6963 19.5859C23.9059 19.8105 24.153 19.9303 24.4375 19.9453H31.8945C32.179 19.9303 32.4261 19.8105 32.6357 19.5859C32.8454 19.3464 32.9951 19.0768 33.085 18.7773C33.1898 18.4629 33.2422 18.1484 33.2422 17.834C33.2422 17.5345 33.1898 17.235 33.085 16.9355C32.9951 16.6211 32.8454 16.3516 32.6357 16.127C32.4261 15.8874 32.179 15.7676 31.8945 15.7676H24.4375Z" fill="#21C87A"/>
</svg>
